<svg xmlns="http://www.w3.org/2000/svg" xmlns:xlink="http://www.w3.org/1999/xlink" width="150" zoomAndPan="magnify" viewBox="0 0 112.5 56.249996" height="75" preserveAspectRatio="xMidYMid meet" version="1.0"><defs><g/></defs><g fill="#FFFFFF" fill-opacity="1"><g transform="translate(19.545001, 35.904418)"><g><path d="M 34.125 -6.84375 C 33.300781 -6.90625 32.476562 -6.925781 31.65625 -6.90625 C 31.300781 -6.90625 30.9375 -6.90625 30.5625 -6.90625 C 27.175781 -6.945312 23.78125 -6.878906 20.375 -6.703125 C 20.195312 -6.691406 20.054688 -6.6875 19.953125 -6.6875 C 19.765625 -6.695312 19.628906 -6.691406 19.546875 -6.671875 C 19.460938 -6.660156 19.394531 -6.613281 19.34375 -6.53125 C 19.300781 -6.457031 19.242188 -6.328125 19.171875 -6.140625 C 19.140625 -6.035156 19.09375 -5.90625 19.03125 -5.75 C 18.5 -4.5 18.015625 -3.226562 17.578125 -1.9375 C 17.296875 -1.101562 17.082031 -0.25 16.9375 0.625 C 16.882812 0.894531 16.867188 1.15625 16.890625 1.40625 C 16.921875 1.664062 17.046875 1.894531 17.265625 2.09375 C 17.296875 2.113281 17.304688 2.140625 17.296875 2.171875 C 17.285156 2.210938 17.265625 2.242188 17.234375 2.265625 C 17.203125 2.296875 17.175781 2.316406 17.15625 2.328125 C 16.664062 2.410156 16.359375 2.238281 16.234375 1.8125 C 16.171875 1.570312 16.15625 1.320312 16.1875 1.0625 C 16.1875 1.039062 16.1875 1.023438 16.1875 1.015625 C 16.21875 0.566406 16.28125 0.125 16.375 -0.3125 C 16.476562 -0.757812 16.597656 -1.207031 16.734375 -1.65625 C 17.171875 -2.988281 17.65625 -4.304688 18.1875 -5.609375 C 18.21875 -5.671875 18.242188 -5.726562 18.265625 -5.78125 C 18.296875 -5.84375 18.320312 -5.910156 18.34375 -5.984375 C 18.382812 -6.066406 18.425781 -6.15625 18.46875 -6.25 C 18.507812 -6.34375 18.519531 -6.441406 18.5 -6.546875 C 18.445312 -6.585938 18.394531 -6.609375 18.34375 -6.609375 C 18.300781 -6.617188 18.257812 -6.625 18.21875 -6.625 C 18.207031 -6.625 18.195312 -6.625 18.1875 -6.625 C 17.789062 -6.613281 17.390625 -6.59375 16.984375 -6.5625 C 16.878906 -6.5625 16.765625 -6.5625 16.640625 -6.5625 C 16.492188 -6.539062 16.375 -6.488281 16.28125 -6.40625 C 16.1875 -6.320312 16.09375 -6.210938 16 -6.078125 C 15.882812 -5.921875 15.769531 -5.765625 15.65625 -5.609375 C 15.15625 -4.921875 14.648438 -4.25 14.140625 -3.59375 C 13.390625 -2.613281 12.597656 -1.664062 11.765625 -0.75 C 10.941406 0.15625 10.0625 1 9.125 1.78125 C 7.957031 2.820312 6.707031 3.738281 5.375 4.53125 C 3.34375 5.695312 1.195312 6.285156 -1.0625 6.296875 C -3.195312 6.316406 -5.140625 5.800781 -6.890625 4.75 C -7.378906 4.445312 -7.816406 4.085938 -8.203125 3.671875 C -8.460938 3.367188 -8.671875 3.039062 -8.828125 2.6875 C -8.984375 2.332031 -9.070312 1.945312 -9.09375 1.53125 C -9.082031 1.03125 -8.976562 0.554688 -8.78125 0.109375 C -8.59375 -0.328125 -8.316406 -0.726562 -7.953125 -1.09375 C -7.453125 -1.59375 -6.898438 -2.023438 -6.296875 -2.390625 C -5.703125 -2.753906 -5.09375 -3.070312 -4.46875 -3.34375 C -3.851562 -3.625 -3.222656 -3.878906 -2.578125 -4.109375 C -1.546875 -4.472656 -0.503906 -4.785156 0.546875 -5.046875 C 1.609375 -5.304688 2.664062 -5.535156 3.71875 -5.734375 C 6.25 -6.160156 8.789062 -6.46875 11.34375 -6.65625 C 12.644531 -6.78125 13.945312 -6.863281 15.25 -6.90625 C 15.601562 -6.90625 15.867188 -7.0625 16.046875 -7.375 C 16.359375 -7.875 16.6875 -8.367188 17.03125 -8.859375 C 17.539062 -9.617188 18.039062 -10.394531 18.53125 -11.1875 C 20.851562 -14.875 23.0625 -18.609375 25.15625 -22.390625 C 25.332031 -22.722656 25.503906 -23.050781 25.671875 -23.375 C 25.765625 -23.539062 25.847656 -23.710938 25.921875 -23.890625 C 26.035156 -24.109375 26.207031 -24.234375 26.4375 -24.265625 C 26.570312 -24.265625 26.671875 -24.226562 26.734375 -24.15625 C 26.804688 -24.082031 26.816406 -23.984375 26.765625 -23.859375 C 26.734375 -23.753906 26.6875 -23.65625 26.625 -23.5625 C 26.28125 -22.914062 25.984375 -22.253906 25.734375 -21.578125 C 25.617188 -21.347656 25.519531 -21.117188 25.4375 -20.890625 C 24.519531 -18.742188 23.597656 -16.597656 22.671875 -14.453125 C 21.972656 -12.796875 21.265625 -11.128906 20.546875 -9.453125 C 20.335938 -8.960938 20.132812 -8.472656 19.9375 -7.984375 C 19.894531 -7.878906 19.851562 -7.78125 19.8125 -7.6875 C 19.800781 -7.664062 19.789062 -7.644531 19.78125 -7.625 C 19.757812 -7.550781 19.738281 -7.476562 19.71875 -7.40625 C 19.695312 -7.34375 19.703125 -7.28125 19.734375 -7.21875 C 19.796875 -7.175781 19.867188 -7.148438 19.953125 -7.140625 C 20.046875 -7.140625 20.128906 -7.144531 20.203125 -7.15625 C 20.253906 -7.164062 20.304688 -7.171875 20.359375 -7.171875 C 20.703125 -7.171875 21.054688 -7.179688 21.421875 -7.203125 C 21.898438 -7.210938 22.382812 -7.222656 22.875 -7.234375 C 25.507812 -7.265625 28.15625 -7.285156 30.8125 -7.296875 C 31.675781 -7.304688 32.535156 -7.296875 33.390625 -7.265625 C 33.472656 -7.253906 33.554688 -7.253906 33.640625 -7.265625 C 33.679688 -7.265625 33.726562 -7.265625 33.78125 -7.265625 C 33.894531 -7.265625 34.003906 -7.257812 34.109375 -7.25 C 34.210938 -7.238281 34.3125 -7.203125 34.40625 -7.140625 C 34.425781 -7.128906 34.4375 -7.109375 34.4375 -7.078125 C 34.445312 -7.054688 34.445312 -7.035156 34.4375 -7.015625 C 34.445312 -6.984375 34.441406 -6.957031 34.421875 -6.9375 C 34.398438 -6.914062 34.378906 -6.898438 34.359375 -6.890625 C 34.285156 -6.859375 34.207031 -6.84375 34.125 -6.84375 Z M 15.21875 -6.203125 C 15.25 -6.265625 15.25 -6.316406 15.21875 -6.359375 C 15.1875 -6.398438 15.144531 -6.421875 15.09375 -6.421875 C 15.007812 -6.421875 14.921875 -6.414062 14.828125 -6.40625 C 14.773438 -6.40625 14.726562 -6.40625 14.6875 -6.40625 C 11.5 -6.28125 8.3125 -5.960938 5.125 -5.453125 C 3.90625 -5.273438 2.691406 -5.046875 1.484375 -4.765625 C 0.285156 -4.492188 -0.898438 -4.15625 -2.078125 -3.75 C -2.710938 -3.53125 -3.332031 -3.285156 -3.9375 -3.015625 C -4.550781 -2.753906 -5.144531 -2.4375 -5.71875 -2.0625 C -6.320312 -1.707031 -6.867188 -1.273438 -7.359375 -0.765625 C -7.929688 -0.140625 -8.242188 0.507812 -8.296875 1.1875 C -8.347656 1.875 -8.144531 2.53125 -7.6875 3.15625 C -7.34375 3.59375 -6.941406 3.960938 -6.484375 4.265625 C -4.796875 5.390625 -2.816406 5.925781 -0.546875 5.875 C 0.046875 5.863281 0.71875 5.765625 1.46875 5.578125 C 2.21875 5.398438 2.9375 5.148438 3.625 4.828125 C 4.320312 4.503906 5 4.128906 5.65625 3.703125 C 7.25 2.660156 8.722656 1.445312 10.078125 0.0625 C 11.003906 -0.863281 11.875 -1.835938 12.6875 -2.859375 C 13.507812 -3.878906 14.304688 -4.921875 15.078125 -5.984375 C 15.117188 -6.066406 15.164062 -6.140625 15.21875 -6.203125 Z M 19.03125 -7.625 C 19.601562 -9.039062 20.195312 -10.453125 20.8125 -11.859375 C 20.84375 -11.941406 20.9375 -12.164062 21.09375 -12.53125 C 21.25 -12.894531 21.425781 -13.316406 21.625 -13.796875 C 21.832031 -14.285156 22.019531 -14.742188 22.1875 -15.171875 C 22.363281 -15.609375 22.484375 -15.9375 22.546875 -16.15625 C 22.609375 -16.375 22.582031 -16.398438 22.46875 -16.234375 C 22.445312 -16.179688 22.425781 -16.132812 22.40625 -16.09375 C 22.3125 -15.945312 22.21875 -15.800781 22.125 -15.65625 C 21.382812 -14.4375 20.640625 -13.210938 19.890625 -11.984375 C 19.148438 -10.765625 18.378906 -9.5625 17.578125 -8.375 C 17.492188 -8.25 17.410156 -8.128906 17.328125 -8.015625 C 17.179688 -7.785156 17.035156 -7.554688 16.890625 -7.328125 C 16.828125 -7.234375 16.804688 -7.15625 16.828125 -7.09375 C 16.859375 -7.03125 16.925781 -7 17.03125 -7 C 17.195312 -7.007812 17.363281 -7.019531 17.53125 -7.03125 C 17.789062 -7.0625 18.050781 -7.082031 18.3125 -7.09375 C 18.507812 -7.09375 18.660156 -7.140625 18.765625 -7.234375 C 18.878906 -7.328125 18.96875 -7.457031 19.03125 -7.625 Z M 19.03125 -7.625 "/></g></g><g transform="translate(39.654224, 35.294416)"><g><path d="M 2.921875 -3.984375 C 2.890625 -3.691406 2.757812 -3.492188 2.53125 -3.390625 C 2.300781 -3.296875 2.222656 -3.410156 2.296875 -3.734375 C 2.367188 -4.066406 2.21875 -4.148438 1.84375 -3.984375 C 1.476562 -3.816406 1.179688 -3.601562 0.953125 -3.34375 C 0.585938 -2.957031 0.269531 -2.539062 0 -2.09375 C -0.03125 -2.050781 -0.0546875 -2.019531 -0.078125 -2 C -0.160156 -1.875 -0.238281 -1.75 -0.3125 -1.625 C -0.363281 -1.550781 -0.425781 -1.503906 -0.5 -1.484375 C -0.582031 -1.460938 -0.660156 -1.457031 -0.734375 -1.46875 C -0.804688 -1.46875 -0.859375 -1.488281 -0.890625 -1.53125 C -0.929688 -1.582031 -0.9375 -1.640625 -0.90625 -1.703125 C -0.875 -1.816406 -0.828125 -1.941406 -0.765625 -2.078125 C -0.398438 -2.796875 -0.03125 -3.515625 0.34375 -4.234375 C 0.34375 -4.242188 0.34375 -4.25 0.34375 -4.25 C 0.394531 -4.363281 0.457031 -4.46875 0.53125 -4.5625 C 0.613281 -4.664062 0.707031 -4.707031 0.8125 -4.6875 C 0.925781 -4.675781 1.003906 -4.613281 1.046875 -4.5 C 1.097656 -4.34375 1.140625 -4.257812 1.171875 -4.25 C 1.210938 -4.238281 1.289062 -4.253906 1.40625 -4.296875 C 1.65625 -4.398438 1.898438 -4.472656 2.140625 -4.515625 C 2.378906 -4.554688 2.578125 -4.550781 2.734375 -4.5 C 2.898438 -4.445312 2.960938 -4.273438 2.921875 -3.984375 Z M 2.921875 -3.984375 "/></g></g><g transform="translate(42.826026, 35.198202)"><g><path d="M 2.4375 -2.75 C 2.226562 -2.46875 1.96875 -2.207031 1.65625 -1.96875 C 1.351562 -1.738281 1.007812 -1.578125 0.625 -1.484375 C 0.238281 -1.398438 -0.0625 -1.421875 -0.28125 -1.546875 C -0.5 -1.679688 -0.550781 -1.984375 -0.4375 -2.453125 C -0.28125 -2.941406 -0.0546875 -3.410156 0.234375 -3.859375 C 0.285156 -3.953125 0.375 -4.019531 0.5 -4.0625 C 0.59375 -4.082031 0.675781 -4.066406 0.75 -4.015625 C 0.820312 -3.972656 0.851562 -3.910156 0.84375 -3.828125 C 0.78125 -3.671875 0.710938 -3.515625 0.640625 -3.359375 C 0.566406 -3.203125 0.519531 -3.101562 0.5 -3.0625 C 0.363281 -2.789062 0.269531 -2.503906 0.21875 -2.203125 C 0.21875 -2.035156 0.441406 -2.03125 0.890625 -2.1875 C 1.335938 -2.34375 1.769531 -2.625 2.1875 -3.03125 C 2.601562 -3.445312 2.800781 -3.570312 2.78125 -3.40625 C 2.769531 -3.25 2.65625 -3.03125 2.4375 -2.75 Z M 1.28125 -4.84375 C 1.257812 -4.832031 1.210938 -4.8125 1.140625 -4.78125 C 1.078125 -4.75 1.007812 -4.726562 0.9375 -4.71875 C 0.863281 -4.707031 0.804688 -4.71875 0.765625 -4.75 C 0.722656 -4.789062 0.710938 -4.859375 0.734375 -4.953125 C 0.804688 -5.128906 0.875 -5.285156 0.9375 -5.421875 C 1.007812 -5.554688 1.101562 -5.707031 1.21875 -5.875 C 1.289062 -5.945312 1.367188 -5.984375 1.453125 -5.984375 C 1.546875 -5.992188 1.625 -5.972656 1.6875 -5.921875 C 1.75 -5.878906 1.769531 -5.8125 1.75 -5.71875 C 1.664062 -5.375 1.507812 -5.082031 1.28125 -4.84375 Z M 1.28125 -4.84375 "/></g></g><g transform="translate(45.300031, 35.123154)"><g><path d="M 4.9375 -3.328125 C 5 -3.242188 4.914062 -3.085938 4.6875 -2.859375 C 4.457031 -2.628906 4.210938 -2.429688 3.953125 -2.265625 C 3.691406 -2.097656 3.390625 -1.9375 3.046875 -1.78125 C 2.816406 -1.664062 2.566406 -1.617188 2.296875 -1.640625 C 2.035156 -1.671875 1.898438 -1.828125 1.890625 -2.109375 C 1.878906 -2.398438 1.9375 -2.6875 2.0625 -2.96875 C 2.1875 -3.257812 2.207031 -3.40625 2.125 -3.40625 C 2.050781 -3.414062 1.90625 -3.34375 1.6875 -3.1875 C 1.09375 -2.78125 0.546875 -2.304688 0.046875 -1.765625 C -0.0976562 -1.597656 -0.273438 -1.5 -0.484375 -1.46875 C -0.597656 -1.46875 -0.6875 -1.5 -0.75 -1.5625 C -0.8125 -1.632812 -0.820312 -1.71875 -0.78125 -1.8125 C -0.4375 -2.507812 -0.078125 -3.195312 0.296875 -3.875 C 0.367188 -4.019531 0.488281 -4.113281 0.65625 -4.15625 C 0.726562 -4.164062 0.796875 -4.140625 0.859375 -4.078125 C 0.921875 -4.023438 0.957031 -3.960938 0.96875 -3.890625 C 0.957031 -3.828125 0.929688 -3.75 0.890625 -3.65625 C 0.867188 -3.601562 0.847656 -3.550781 0.828125 -3.5 C 0.804688 -3.445312 0.800781 -3.398438 0.8125 -3.359375 C 0.820312 -3.328125 0.851562 -3.320312 0.90625 -3.34375 C 0.957031 -3.375 1.015625 -3.410156 1.078125 -3.453125 C 1.234375 -3.554688 1.390625 -3.648438 1.546875 -3.734375 C 1.671875 -3.816406 1.800781 -3.882812 1.9375 -3.9375 C 2.082031 -4 2.234375 -4.046875 2.390625 -4.078125 C 2.640625 -4.109375 2.820312 -4.054688 2.9375 -3.921875 C 3.050781 -3.796875 3.070312 -3.613281 3 -3.375 C 2.914062 -3.164062 2.832031 -2.953125 2.75 -2.734375 C 2.632812 -2.546875 2.613281 -2.398438 2.6875 -2.296875 C 2.769531 -2.203125 3.125 -2.328125 3.75 -2.671875 L 4.203125 -2.96875 C 4.660156 -3.28125 4.90625 -3.398438 4.9375 -3.328125 Z M 4.9375 -3.328125 "/></g></g><g transform="translate(49.949892, 34.982103)"><g><path d="M 1.234375 -5.4375 C 1.085938 -5.28125 0.957031 -5.203125 0.84375 -5.203125 C 0.738281 -5.210938 0.707031 -5.335938 0.75 -5.578125 C 0.800781 -5.921875 0.945312 -6.234375 1.1875 -6.515625 C 1.226562 -6.566406 1.28125 -6.59375 1.34375 -6.59375 C 1.414062 -6.601562 1.484375 -6.597656 1.546875 -6.578125 C 1.578125 -6.554688 1.609375 -6.53125 1.640625 -6.5 C 1.671875 -6.476562 1.6875 -6.453125 1.6875 -6.421875 C 1.644531 -6.035156 1.492188 -5.707031 1.234375 -5.4375 Z M 2.859375 -3.375 C 2.878906 -3.375 2.898438 -3.363281 2.921875 -3.34375 C 2.953125 -3.332031 2.972656 -3.316406 2.984375 -3.296875 C 2.984375 -3.285156 2.976562 -3.265625 2.96875 -3.234375 C 2.957031 -3.203125 2.941406 -3.175781 2.921875 -3.15625 C 2.816406 -3.070312 2.707031 -2.988281 2.59375 -2.90625 C 2.382812 -2.78125 2.175781 -2.648438 1.96875 -2.515625 C 1.4375 -2.148438 0.894531 -1.8125 0.34375 -1.5 C -0.0703125 -1.257812 -0.359375 -0.914062 -0.515625 -0.46875 C -0.859375 0.414062 -1.222656 1.289062 -1.609375 2.15625 C -1.773438 2.570312 -1.957031 2.972656 -2.15625 3.359375 C -2.363281 3.742188 -2.597656 4.117188 -2.859375 4.484375 C -3.378906 5.191406 -4.0625 5.617188 -4.90625 5.765625 C -5.582031 5.867188 -6.242188 5.847656 -6.890625 5.703125 C -7.410156 5.566406 -7.898438 5.367188 -8.359375 5.109375 C -8.515625 5.015625 -8.664062 4.898438 -8.8125 4.765625 C -9.476562 4.203125 -9.425781 3.59375 -8.65625 2.9375 C -8.382812 2.726562 -8.113281 2.535156 -7.84375 2.359375 C -7.394531 2.085938 -6.9375 1.835938 -6.46875 1.609375 C -5.882812 1.296875 -5.304688 0.988281 -4.734375 0.6875 C -3.765625 0.195312 -2.8125 -0.285156 -1.875 -0.765625 C -1.6875 -0.867188 -1.535156 -0.945312 -1.421875 -1 C -1.242188 -1.09375 -1.117188 -1.164062 -1.046875 -1.21875 C -0.984375 -1.269531 -0.925781 -1.332031 -0.875 -1.40625 C -0.832031 -1.488281 -0.78125 -1.609375 -0.71875 -1.765625 C -0.6875 -1.898438 -0.613281 -2.070312 -0.5 -2.28125 C -0.351562 -2.644531 -0.222656 -3.003906 -0.109375 -3.359375 C -0.00390625 -3.609375 0.09375 -3.859375 0.1875 -4.109375 C 0.25 -4.265625 0.328125 -4.40625 0.421875 -4.53125 C 0.523438 -4.644531 0.644531 -4.671875 0.78125 -4.609375 C 0.882812 -4.554688 0.925781 -4.472656 0.90625 -4.359375 C 0.875 -4.242188 0.8125 -4.050781 0.71875 -3.78125 C 0.632812 -3.539062 0.550781 -3.289062 0.46875 -3.03125 C 0.394531 -2.78125 0.332031 -2.5625 0.28125 -2.375 C 0.238281 -2.195312 0.226562 -2.09375 0.25 -2.0625 C 0.269531 -2.03125 0.328125 -2.035156 0.421875 -2.078125 C 0.515625 -2.128906 0.675781 -2.21875 0.90625 -2.34375 C 0.914062 -2.34375 0.921875 -2.34375 0.921875 -2.34375 C 1.265625 -2.550781 1.601562 -2.757812 1.9375 -2.96875 C 2.0625 -3.039062 2.191406 -3.125 2.328125 -3.21875 C 2.335938 -3.21875 2.34375 -3.21875 2.34375 -3.21875 C 2.425781 -3.257812 2.507812 -3.296875 2.59375 -3.328125 C 2.675781 -3.367188 2.765625 -3.382812 2.859375 -3.375 Z M -1.390625 -0.09375 C -1.335938 -0.207031 -1.34375 -0.304688 -1.40625 -0.390625 C -1.507812 -0.398438 -1.609375 -0.375 -1.703125 -0.3125 C -1.722656 -0.300781 -1.75 -0.289062 -1.78125 -0.28125 C -2.15625 -0.0703125 -2.539062 0.128906 -2.9375 0.328125 C -3.9375 0.835938 -4.941406 1.351562 -5.953125 1.875 C -6.492188 2.15625 -7.039062 2.46875 -7.59375 2.8125 C -7.820312 2.957031 -8.035156 3.125 -8.234375 3.3125 C -8.609375 3.675781 -8.644531 4.015625 -8.34375 4.328125 C -8.269531 4.410156 -8.195312 4.484375 -8.125 4.546875 C -7.738281 4.816406 -7.320312 5.023438 -6.875 5.171875 C -6.425781 5.316406 -5.953125 5.390625 -5.453125 5.390625 C -4.722656 5.367188 -4.117188 5.050781 -3.640625 4.4375 C -3.296875 4.019531 -3.015625 3.578125 -2.796875 3.109375 C -2.453125 2.359375 -2.117188 1.601562 -1.796875 0.84375 C -1.660156 0.519531 -1.523438 0.207031 -1.390625 -0.09375 Z M -1.390625 -0.09375 "/></g></g><g transform="translate(52.531739, 34.903784)"><g><path d="M 4.5 -3.375 C 4.601562 -3.320312 4.617188 -3.179688 4.546875 -2.953125 C 4.421875 -2.796875 4.289062 -2.644531 4.15625 -2.5 C 4.03125 -2.351562 3.882812 -2.222656 3.71875 -2.109375 C 3.707031 -2.109375 3.703125 -2.101562 3.703125 -2.09375 C 3.585938 -2.007812 3.472656 -1.941406 3.359375 -1.890625 C 2.359375 -1.492188 1.832031 -1.691406 1.78125 -2.484375 C 1.382812 -2.109375 1.117188 -1.878906 0.984375 -1.796875 C 0.648438 -1.585938 0.289062 -1.488281 -0.09375 -1.5 C -0.382812 -1.507812 -0.582031 -1.585938 -0.6875 -1.734375 C -0.800781 -1.890625 -0.800781 -2.109375 -0.6875 -2.390625 C -0.507812 -2.816406 -0.253906 -3.207031 0.078125 -3.5625 C 0.460938 -3.945312 0.898438 -4.257812 1.390625 -4.5 C 1.648438 -4.632812 1.921875 -4.695312 2.203125 -4.6875 C 2.492188 -4.664062 2.675781 -4.503906 2.75 -4.203125 C 2.769531 -4.109375 2.75 -4.019531 2.6875 -3.9375 C 2.59375 -3.851562 2.484375 -3.835938 2.359375 -3.890625 C 2.359375 -3.890625 2.347656 -3.890625 2.328125 -3.890625 C 2.316406 -3.898438 2.304688 -3.90625 2.296875 -3.90625 C 2.160156 -4.070312 2.03125 -4.140625 1.90625 -4.109375 C 1.78125 -4.078125 1.648438 -4.015625 1.515625 -3.921875 C 0.878906 -3.523438 0.414062 -2.976562 0.125 -2.28125 C 0.101562 -2.25 0.0859375 -2.21875 0.078125 -2.1875 C 0.078125 -2.15625 0.09375 -2.125 0.125 -2.09375 C 0.195312 -2.082031 0.28125 -2.09375 0.375 -2.125 C 0.46875 -2.164062 0.554688 -2.222656 0.640625 -2.296875 C 0.734375 -2.367188 0.8125 -2.429688 0.875 -2.484375 C 0.882812 -2.492188 0.890625 -2.5 0.890625 -2.5 C 1.179688 -2.769531 1.476562 -3.046875 1.78125 -3.328125 C 1.894531 -3.460938 2.050781 -3.546875 2.25 -3.578125 C 2.53125 -3.578125 2.648438 -3.453125 2.609375 -3.203125 C 2.585938 -3.109375 2.5625 -3.015625 2.53125 -2.921875 C 2.445312 -2.515625 2.453125 -2.273438 2.546875 -2.203125 C 2.648438 -2.140625 2.804688 -2.144531 3.015625 -2.21875 C 3.222656 -2.300781 3.429688 -2.441406 3.640625 -2.640625 C 3.847656 -2.847656 4.019531 -3.035156 4.15625 -3.203125 C 4.289062 -3.367188 4.40625 -3.425781 4.5 -3.375 Z M 4.5 -3.375 "/></g></g><g transform="translate(56.737548, 34.776203)"><g><path d="M 4.875 -3.46875 C 4.9375 -3.363281 4.851562 -3.191406 4.625 -2.953125 C 4.394531 -2.722656 3.984375 -2.441406 3.390625 -2.109375 C 3.171875 -2.003906 3.007812 -1.921875 2.90625 -1.859375 C 2.8125 -1.804688 2.738281 -1.738281 2.6875 -1.65625 C 2.644531 -1.570312 2.601562 -1.441406 2.5625 -1.265625 C 2.519531 -1.128906 2.460938 -0.953125 2.390625 -0.734375 C 2.304688 -0.453125 2.210938 -0.164062 2.109375 0.125 C 1.941406 0.707031 1.738281 1.289062 1.5 1.875 C 1.257812 2.457031 0.941406 2.96875 0.546875 3.40625 C 0.160156 3.84375 -0.351562 4.144531 -1 4.3125 C -1.625 4.457031 -2.238281 4.492188 -2.84375 4.421875 C -3.457031 4.359375 -4.054688 4.207031 -4.640625 3.96875 C -4.867188 3.875 -5.078125 3.742188 -5.265625 3.578125 C -5.585938 3.265625 -5.625 2.910156 -5.375 2.515625 C -5.238281 2.316406 -5.078125 2.140625 -4.890625 1.984375 C -4.535156 1.671875 -4.160156 1.378906 -3.765625 1.109375 C -3.015625 0.628906 -2.25 0.191406 -1.46875 -0.203125 C -0.695312 -0.609375 0.0859375 -1.003906 0.890625 -1.390625 C 0.941406 -1.421875 1.003906 -1.453125 1.078125 -1.484375 C 1.296875 -1.585938 1.519531 -1.691406 1.75 -1.796875 C 1.894531 -1.867188 2 -1.984375 2.0625 -2.140625 C 2.070312 -2.191406 2.078125 -2.242188 2.078125 -2.296875 C 2.066406 -2.316406 2.046875 -2.328125 2.015625 -2.328125 C 1.992188 -2.335938 1.96875 -2.335938 1.9375 -2.328125 C 1.863281 -2.273438 1.785156 -2.210938 1.703125 -2.140625 C 1.648438 -2.117188 1.597656 -2.085938 1.546875 -2.046875 C 1.265625 -1.867188 0.96875 -1.785156 0.65625 -1.796875 C 0.15625 -1.785156 -0.109375 -2.003906 -0.140625 -2.453125 C -0.148438 -2.816406 -0.0976562 -3.160156 0.015625 -3.484375 C 0.140625 -3.816406 0.320312 -4.128906 0.5625 -4.421875 C 0.582031 -4.453125 0.613281 -4.476562 0.65625 -4.5 C 0.707031 -4.519531 0.757812 -4.535156 0.8125 -4.546875 C 0.8125 -4.546875 0.820312 -4.550781 0.84375 -4.5625 C 0.9375 -4.570312 1.007812 -4.546875 1.0625 -4.484375 C 1.113281 -4.429688 1.125 -4.363281 1.09375 -4.28125 C 1.039062 -4.164062 0.988281 -4.046875 0.9375 -3.921875 C 0.894531 -3.828125 0.851562 -3.734375 0.8125 -3.640625 C 0.632812 -3.265625 0.5625 -2.878906 0.59375 -2.484375 C 0.59375 -2.398438 0.628906 -2.34375 0.703125 -2.3125 C 0.773438 -2.28125 0.851562 -2.28125 0.9375 -2.3125 C 1.175781 -2.425781 1.390625 -2.578125 1.578125 -2.765625 C 2.054688 -3.242188 2.457031 -3.785156 2.78125 -4.390625 C 2.8125 -4.472656 2.859375 -4.546875 2.921875 -4.609375 C 2.984375 -4.671875 3.066406 -4.703125 3.171875 -4.703125 C 3.296875 -4.734375 3.394531 -4.710938 3.46875 -4.640625 C 3.539062 -4.566406 3.566406 -4.472656 3.546875 -4.359375 C 3.429688 -3.984375 3.316406 -3.601562 3.203125 -3.21875 C 3.191406 -3.1875 3.179688 -3.160156 3.171875 -3.140625 C 3.140625 -3.046875 3.109375 -2.953125 3.078125 -2.859375 C 3.054688 -2.773438 3.046875 -2.695312 3.046875 -2.625 C 3.046875 -2.550781 3.078125 -2.515625 3.140625 -2.515625 C 3.367188 -2.578125 3.703125 -2.773438 4.140625 -3.109375 C 4.578125 -3.453125 4.820312 -3.570312 4.875 -3.46875 Z M 1.640625 -0.8125 C 1.628906 -0.832031 1.628906 -0.847656 1.640625 -0.859375 C 1.671875 -0.910156 1.6875 -0.960938 1.6875 -1.015625 C 1.695312 -1.066406 1.679688 -1.125 1.640625 -1.1875 C 1.609375 -1.1875 1.585938 -1.1875 1.578125 -1.1875 C 1.515625 -1.175781 1.460938 -1.160156 1.421875 -1.140625 C 1.328125 -1.109375 1.234375 -1.0625 1.140625 -1 C 0.398438 -0.632812 -0.332031 -0.257812 -1.0625 0.125 C -1.800781 0.507812 -2.519531 0.914062 -3.21875 1.34375 C -3.644531 1.613281 -4.046875 1.921875 -4.421875 2.265625 C -4.722656 2.554688 -4.863281 2.804688 -4.84375 3.015625 C -4.832031 3.222656 -4.644531 3.40625 -4.28125 3.5625 C -3.457031 3.957031 -2.582031 4.097656 -1.65625 3.984375 C -1.03125 3.910156 -0.523438 3.660156 -0.140625 3.234375 C 0.242188 2.804688 0.554688 2.300781 0.796875 1.71875 C 1.035156 1.132812 1.234375 0.546875 1.390625 -0.046875 C 1.460938 -0.316406 1.546875 -0.570312 1.640625 -0.8125 Z M 1.640625 -0.8125 "/></g></g><g transform="translate(61.355691, 34.636115)"><g/></g><g transform="translate(66.151456, 34.490638)"><g><path d="M 32.21875 -19.296875 C 32.332031 -19.210938 32.429688 -19.109375 32.515625 -18.984375 C 32.609375 -18.867188 32.675781 -18.738281 32.71875 -18.59375 C 32.75 -18.414062 32.691406 -18.273438 32.546875 -18.171875 C 32.453125 -18.117188 32.359375 -18.109375 32.265625 -18.140625 C 32.179688 -18.171875 32.113281 -18.238281 32.0625 -18.34375 C 31.945312 -18.613281 31.785156 -18.828125 31.578125 -18.984375 C 31.378906 -19.148438 31.15625 -19.285156 30.90625 -19.390625 C 30.351562 -19.660156 29.789062 -19.875 29.21875 -20.03125 C 28.65625 -20.1875 28.082031 -20.328125 27.5 -20.453125 C 26.53125 -20.617188 25.242188 -20.707031 23.640625 -20.71875 C 22.046875 -20.726562 20.273438 -20.648438 18.328125 -20.484375 C 16.378906 -20.316406 14.378906 -20.046875 12.328125 -19.671875 C 10.285156 -19.296875 8.335938 -18.804688 6.484375 -18.203125 C 4.628906 -17.609375 3 -16.882812 1.59375 -16.03125 C 0.195312 -15.1875 -0.828125 -14.207031 -1.484375 -13.09375 C -2.046875 -12.113281 -2.132812 -11.097656 -1.75 -10.046875 C -1.46875 -9.328125 -1.082031 -8.675781 -0.59375 -8.09375 C 0.144531 -7.21875 0.953125 -6.425781 1.828125 -5.71875 C 2.566406 -5.070312 3.316406 -4.429688 4.078125 -3.796875 C 4.816406 -3.179688 5.554688 -2.554688 6.296875 -1.921875 C 7.117188 -1.222656 7.925781 -0.503906 8.71875 0.234375 C 8.789062 0.304688 8.863281 0.375 8.9375 0.4375 C 9.363281 0.800781 9.75 1.222656 10.09375 1.703125 C 10.425781 2.234375 10.5 2.648438 10.3125 2.953125 C 10.125 3.253906 9.75 3.46875 9.1875 3.59375 C 8.632812 3.71875 7.984375 3.769531 7.234375 3.75 C 6.492188 3.726562 5.738281 3.65625 4.96875 3.53125 C 4.207031 3.414062 3.53125 3.265625 2.9375 3.078125 C 2.351562 2.890625 1.9375 2.691406 1.6875 2.484375 C 1.1875 2.046875 1.140625 1.570312 1.546875 1.0625 C 1.984375 0.539062 2.523438 0.15625 3.171875 -0.09375 C 4.097656 -0.488281 5.050781 -0.550781 6.03125 -0.28125 C 6.21875 -0.21875 6.394531 -0.132812 6.5625 -0.03125 C 6.582031 -0.0195312 6.597656 -0.0078125 6.609375 0 C 6.648438 0.0195312 6.679688 0.0546875 6.703125 0.109375 C 6.734375 0.160156 6.726562 0.21875 6.6875 0.28125 C 6.613281 0.375 6.523438 0.40625 6.421875 0.375 C 6.304688 0.34375 6.203125 0.296875 6.109375 0.234375 C 5.429688 -0.078125 4.742188 -0.125 4.046875 0.09375 C 3.347656 0.3125 2.765625 0.71875 2.296875 1.3125 C 2.085938 1.59375 2.082031 1.832031 2.28125 2.03125 C 2.476562 2.238281 2.773438 2.410156 3.171875 2.546875 C 3.566406 2.679688 3.960938 2.785156 4.359375 2.859375 C 4.753906 2.929688 5.050781 2.976562 5.25 3 C 5.289062 3 5.316406 3 5.328125 3 C 5.367188 3 5.414062 3.003906 5.46875 3.015625 C 5.71875 3.054688 6.0625 3.097656 6.5 3.140625 C 6.9375 3.191406 7.382812 3.222656 7.84375 3.234375 C 8.3125 3.253906 8.707031 3.210938 9.03125 3.109375 C 9.351562 3.015625 9.53125 2.84375 9.5625 2.59375 C 9.601562 2.351562 9.414062 2.007812 9 1.5625 C 8.539062 1.0625 8.0625 0.582031 7.5625 0.125 C 6.3125 -1.007812 5.035156 -2.101562 3.734375 -3.15625 C 3.265625 -3.5625 2.796875 -3.960938 2.328125 -4.359375 C 1.546875 -5.023438 0.773438 -5.703125 0.015625 -6.390625 C -0.679688 -7.023438 -1.304688 -7.734375 -1.859375 -8.515625 C -2.242188 -9.085938 -2.519531 -9.695312 -2.6875 -10.34375 C -2.9375 -11.4375 -2.765625 -12.453125 -2.171875 -13.390625 C -1.523438 -14.453125 -0.5625 -15.394531 0.71875 -16.21875 C 2 -17.039062 3.488281 -17.757812 5.1875 -18.375 C 6.894531 -18.988281 8.710938 -19.5 10.640625 -19.90625 C 12.578125 -20.3125 14.53125 -20.617188 16.5 -20.828125 C 18.46875 -21.035156 20.363281 -21.144531 22.1875 -21.15625 C 24.007812 -21.175781 25.660156 -21.09375 27.140625 -20.90625 C 28.628906 -20.71875 29.847656 -20.4375 30.796875 -20.0625 C 31.296875 -19.875 31.769531 -19.617188 32.21875 -19.296875 Z M 32.21875 -19.296875 "/></g></g><g transform="translate(75.501927, 34.206997)"><g><path d="M 2.4375 -2.75 C 2.226562 -2.46875 1.96875 -2.207031 1.65625 -1.96875 C 1.351562 -1.738281 1.007812 -1.578125 0.625 -1.484375 C 0.238281 -1.398438 -0.0625 -1.421875 -0.28125 -1.546875 C -0.5 -1.679688 -0.550781 -1.984375 -0.4375 -2.453125 C -0.28125 -2.941406 -0.0546875 -3.410156 0.234375 -3.859375 C 0.285156 -3.953125 0.375 -4.019531 0.5 -4.0625 C 0.59375 -4.082031 0.675781 -4.066406 0.75 -4.015625 C 0.820312 -3.972656 0.851562 -3.910156 0.84375 -3.828125 C 0.78125 -3.671875 0.710938 -3.515625 0.640625 -3.359375 C 0.566406 -3.203125 0.519531 -3.101562 0.5 -3.0625 C 0.363281 -2.789062 0.269531 -2.503906 0.21875 -2.203125 C 0.21875 -2.035156 0.441406 -2.03125 0.890625 -2.1875 C 1.335938 -2.34375 1.769531 -2.625 2.1875 -3.03125 C 2.601562 -3.445312 2.800781 -3.570312 2.78125 -3.40625 C 2.769531 -3.25 2.65625 -3.03125 2.4375 -2.75 Z M 1.28125 -4.84375 C 1.257812 -4.832031 1.210938 -4.8125 1.140625 -4.78125 C 1.078125 -4.75 1.007812 -4.726562 0.9375 -4.71875 C 0.863281 -4.707031 0.804688 -4.71875 0.765625 -4.75 C 0.722656 -4.789062 0.710938 -4.859375 0.734375 -4.953125 C 0.804688 -5.128906 0.875 -5.285156 0.9375 -5.421875 C 1.007812 -5.554688 1.101562 -5.707031 1.21875 -5.875 C 1.289062 -5.945312 1.367188 -5.984375 1.453125 -5.984375 C 1.546875 -5.992188 1.625 -5.972656 1.6875 -5.921875 C 1.75 -5.878906 1.769531 -5.8125 1.75 -5.71875 C 1.664062 -5.375 1.507812 -5.082031 1.28125 -4.84375 Z M 1.28125 -4.84375 "/></g></g><g transform="translate(77.975932, 34.131949)"><g><path d="M 4.9375 -3.328125 C 5 -3.242188 4.914062 -3.085938 4.6875 -2.859375 C 4.457031 -2.628906 4.210938 -2.429688 3.953125 -2.265625 C 3.691406 -2.097656 3.390625 -1.9375 3.046875 -1.78125 C 2.816406 -1.664062 2.566406 -1.617188 2.296875 -1.640625 C 2.035156 -1.671875 1.898438 -1.828125 1.890625 -2.109375 C 1.878906 -2.398438 1.9375 -2.6875 2.0625 -2.96875 C 2.1875 -3.257812 2.207031 -3.40625 2.125 -3.40625 C 2.050781 -3.414062 1.90625 -3.34375 1.6875 -3.1875 C 1.09375 -2.78125 0.546875 -2.304688 0.046875 -1.765625 C -0.0976562 -1.597656 -0.273438 -1.5 -0.484375 -1.46875 C -0.597656 -1.46875 -0.6875 -1.5 -0.75 -1.5625 C -0.8125 -1.632812 -0.820312 -1.71875 -0.78125 -1.8125 C -0.4375 -2.507812 -0.078125 -3.195312 0.296875 -3.875 C 0.367188 -4.019531 0.488281 -4.113281 0.65625 -4.15625 C 0.726562 -4.164062 0.796875 -4.140625 0.859375 -4.078125 C 0.921875 -4.023438 0.957031 -3.960938 0.96875 -3.890625 C 0.957031 -3.828125 0.929688 -3.75 0.890625 -3.65625 C 0.867188 -3.601562 0.847656 -3.550781 0.828125 -3.5 C 0.804688 -3.445312 0.800781 -3.398438 0.8125 -3.359375 C 0.820312 -3.328125 0.851562 -3.320312 0.90625 -3.34375 C 0.957031 -3.375 1.015625 -3.410156 1.078125 -3.453125 C 1.234375 -3.554688 1.390625 -3.648438 1.546875 -3.734375 C 1.671875 -3.816406 1.800781 -3.882812 1.9375 -3.9375 C 2.082031 -4 2.234375 -4.046875 2.390625 -4.078125 C 2.640625 -4.109375 2.820312 -4.054688 2.9375 -3.921875 C 3.050781 -3.796875 3.070312 -3.613281 3 -3.375 C 2.914062 -3.164062 2.832031 -2.953125 2.75 -2.734375 C 2.632812 -2.546875 2.613281 -2.398438 2.6875 -2.296875 C 2.769531 -2.203125 3.125 -2.328125 3.75 -2.671875 L 4.203125 -2.96875 C 4.660156 -3.28125 4.90625 -3.398438 4.9375 -3.328125 Z M 4.9375 -3.328125 "/></g></g><g transform="translate(82.625794, 33.990898)"><g><path d="M 5.5 -3.578125 C 5.53125 -3.585938 5.566406 -3.585938 5.609375 -3.578125 C 5.648438 -3.566406 5.6875 -3.546875 5.71875 -3.515625 C 5.75 -3.472656 5.75 -3.425781 5.71875 -3.375 C 5.6875 -3.332031 5.644531 -3.296875 5.59375 -3.265625 C 5.21875 -3.066406 4.835938 -2.863281 4.453125 -2.65625 C 4.015625 -2.40625 3.566406 -2.160156 3.109375 -1.921875 C 3.054688 -1.890625 3 -1.859375 2.9375 -1.828125 C 2.832031 -1.753906 2.726562 -1.695312 2.625 -1.65625 C 2.394531 -1.539062 2.242188 -1.359375 2.171875 -1.109375 C 1.992188 -0.523438 1.796875 0.0507812 1.578125 0.625 C 1.328125 1.394531 0.992188 2.128906 0.578125 2.828125 C 0.347656 3.222656 0.0664062 3.582031 -0.265625 3.90625 C -0.660156 4.300781 -1.125 4.550781 -1.65625 4.65625 C -2.53125 4.863281 -3.375 4.832031 -4.1875 4.5625 C -4.53125 4.457031 -4.820312 4.28125 -5.0625 4.03125 C -5.414062 3.6875 -5.445312 3.3125 -5.15625 2.90625 C -5.03125 2.726562 -4.890625 2.5625 -4.734375 2.40625 C -4.390625 2.070312 -4.003906 1.769531 -3.578125 1.5 C -2.109375 0.5 -0.59375 -0.429688 0.96875 -1.296875 C 0.976562 -1.296875 0.984375 -1.296875 0.984375 -1.296875 C 1.128906 -1.378906 1.285156 -1.472656 1.453125 -1.578125 C 1.472656 -1.597656 1.503906 -1.640625 1.546875 -1.703125 C 1.597656 -1.773438 1.632812 -1.847656 1.65625 -1.921875 C 1.675781 -1.992188 1.664062 -2.046875 1.625 -2.078125 C 1.59375 -2.109375 1.503906 -2.09375 1.359375 -2.03125 C 1.304688 -2.007812 1.257812 -1.976562 1.21875 -1.9375 C 1.09375 -1.882812 0.972656 -1.832031 0.859375 -1.78125 C 0.140625 -1.582031 -0.226562 -1.851562 -0.25 -2.59375 C -0.25 -3.03125 -0.128906 -3.425781 0.109375 -3.78125 C 0.347656 -4.144531 0.65625 -4.429688 1.03125 -4.640625 C 1.40625 -4.847656 1.820312 -4.941406 2.28125 -4.921875 C 2.320312 -4.921875 2.367188 -4.914062 2.421875 -4.90625 C 2.546875 -4.882812 2.664062 -4.875 2.78125 -4.875 C 2.90625 -4.882812 3.035156 -4.914062 3.171875 -4.96875 C 3.296875 -5.039062 3.394531 -5.03125 3.46875 -4.9375 C 3.550781 -4.851562 3.566406 -4.742188 3.515625 -4.609375 C 3.410156 -4.335938 3.300781 -4.0625 3.1875 -3.78125 C 3.101562 -3.625 3.03125 -3.457031 2.96875 -3.28125 C 2.882812 -3.09375 2.804688 -2.894531 2.734375 -2.6875 C 2.628906 -2.4375 2.613281 -2.304688 2.6875 -2.296875 C 2.769531 -2.285156 2.90625 -2.332031 3.09375 -2.4375 C 3.125 -2.445312 3.148438 -2.457031 3.171875 -2.46875 C 3.535156 -2.644531 3.890625 -2.820312 4.234375 -3 C 4.484375 -3.125 4.734375 -3.25 4.984375 -3.375 C 5.160156 -3.445312 5.332031 -3.515625 5.5 -3.578125 Z M 1.09375 -0.03125 C 1.207031 -0.394531 1.253906 -0.632812 1.234375 -0.75 C 1.210938 -0.875 1.128906 -0.90625 0.984375 -0.84375 C 0.847656 -0.789062 0.664062 -0.6875 0.4375 -0.53125 C 0.289062 -0.425781 0.132812 -0.328125 -0.03125 -0.234375 C -1.09375 0.378906 -2.125 1.03125 -3.125 1.71875 C -3.5625 1.988281 -3.953125 2.316406 -4.296875 2.703125 C -4.648438 3.117188 -4.625 3.472656 -4.21875 3.765625 C -3.976562 3.953125 -3.710938 4.078125 -3.421875 4.140625 C -3.140625 4.203125 -2.828125 4.226562 -2.484375 4.21875 C -2.078125 4.238281 -1.707031 4.15625 -1.375 3.96875 C -1.039062 3.78125 -0.734375 3.5 -0.453125 3.125 C -0.285156 2.894531 -0.117188 2.648438 0.046875 2.390625 C 0.472656 1.617188 0.820312 0.8125 1.09375 -0.03125 Z M 0.609375 -2.25 C 0.722656 -2.21875 0.878906 -2.265625 1.078125 -2.390625 C 1.285156 -2.523438 1.492188 -2.707031 1.703125 -2.9375 C 1.921875 -3.164062 2.085938 -3.398438 2.203125 -3.640625 C 2.328125 -3.878906 2.359375 -4.078125 2.296875 -4.234375 C 2.273438 -4.285156 2.25 -4.328125 2.21875 -4.359375 C 2.132812 -4.429688 2.050781 -4.460938 1.96875 -4.453125 C 1.882812 -4.453125 1.800781 -4.441406 1.71875 -4.421875 C 1.414062 -4.285156 1.148438 -4.0625 0.921875 -3.75 C 0.691406 -3.445312 0.539062 -3.148438 0.46875 -2.859375 C 0.394531 -2.566406 0.441406 -2.363281 0.609375 -2.25 Z M 0.609375 -2.25 "/></g></g><g transform="translate(88.043231, 33.826563)"><g><path d="M 5.0625 -3.109375 C 4.988281 -3.046875 4.910156 -2.988281 4.828125 -2.9375 C 4.554688 -2.75 4.316406 -2.601562 4.109375 -2.5 C 3.898438 -2.394531 3.644531 -2.289062 3.34375 -2.1875 C 2.90625 -2.03125 2.617188 -2.046875 2.484375 -2.234375 C 2.359375 -2.429688 2.332031 -2.695312 2.40625 -3.03125 C 2.507812 -3.519531 2.566406 -3.875 2.578125 -4.09375 C 2.597656 -4.320312 2.523438 -4.394531 2.359375 -4.3125 C 2.191406 -4.238281 1.894531 -4.003906 1.46875 -3.609375 C 0.875 -3.054688 0.367188 -2.429688 -0.046875 -1.734375 C -0.0976562 -1.640625 -0.164062 -1.5625 -0.25 -1.5 C -0.332031 -1.4375 -0.429688 -1.40625 -0.546875 -1.40625 C -0.660156 -1.40625 -0.742188 -1.429688 -0.796875 -1.484375 C -0.847656 -1.535156 -0.847656 -1.617188 -0.796875 -1.734375 C -0.566406 -2.285156 -0.332031 -2.835938 -0.09375 -3.390625 C 0.332031 -4.335938 0.75 -5.289062 1.15625 -6.25 C 1.457031 -6.957031 1.753906 -7.660156 2.046875 -8.359375 C 2.234375 -8.773438 2.414062 -9.191406 2.59375 -9.609375 C 2.601562 -9.648438 2.617188 -9.6875 2.640625 -9.71875 C 2.648438 -9.769531 2.664062 -9.816406 2.6875 -9.859375 C 2.71875 -9.910156 2.75 -9.960938 2.78125 -10.015625 C 2.800781 -10.054688 2.84375 -10.09375 2.90625 -10.125 C 2.96875 -10.15625 3.035156 -10.175781 3.109375 -10.1875 C 3.179688 -10.207031 3.238281 -10.207031 3.28125 -10.1875 C 3.34375 -10.144531 3.375 -10.101562 3.375 -10.0625 C 3.382812 -10.019531 3.378906 -9.976562 3.359375 -9.9375 C 3.347656 -9.925781 3.34375 -9.910156 3.34375 -9.890625 C 3.269531 -9.640625 3.1875 -9.398438 3.09375 -9.171875 C 2.601562 -7.847656 2.0625 -6.550781 1.46875 -5.28125 C 1.414062 -5.195312 1.359375 -5.09375 1.296875 -4.96875 C 1.210938 -4.800781 1.132812 -4.632812 1.0625 -4.46875 C 0.988281 -4.300781 0.960938 -4.1875 0.984375 -4.125 C 1.015625 -4.070312 1.140625 -4.125 1.359375 -4.28125 C 1.429688 -4.320312 1.492188 -4.367188 1.546875 -4.421875 C 1.710938 -4.546875 1.882812 -4.660156 2.0625 -4.765625 C 2.21875 -4.878906 2.382812 -4.941406 2.5625 -4.953125 C 3 -4.992188 3.253906 -4.800781 3.328125 -4.375 C 3.347656 -4.195312 3.34375 -4.023438 3.3125 -3.859375 C 3.289062 -3.691406 3.257812 -3.519531 3.21875 -3.34375 C 3.21875 -3.300781 3.210938 -3.253906 3.203125 -3.203125 C 3.140625 -2.910156 3.164062 -2.742188 3.28125 -2.703125 C 3.394531 -2.671875 3.554688 -2.703125 3.765625 -2.796875 C 3.972656 -2.890625 4.179688 -3.007812 4.390625 -3.15625 C 4.535156 -3.226562 4.664062 -3.289062 4.78125 -3.34375 C 4.894531 -3.40625 4.976562 -3.4375 5.03125 -3.4375 C 5.132812 -3.414062 5.179688 -3.367188 5.171875 -3.296875 C 5.160156 -3.234375 5.125 -3.171875 5.0625 -3.109375 Z M 5.0625 -3.109375 "/></g></g></g></svg>