<svg version="1.1" id="Layer_1" xmlns="http://www.w3.org/2000/svg" xmlns:xlink="http://www.w3.org/1999/xlink" x="0px" y="0px"
	 width="100%" viewBox="0 0 592 644" enable-background="new 0 0 592 644" xml:space="preserve">
<path fill="#154F5B" opacity="1.000000" stroke="none" 
	d="
M368.527466,508.770813 
	C362.435791,510.274384 356.795288,511.922668 351.051788,513.042969 
	C344.639587,514.293762 338.043549,514.669373 331.685760,516.119568 
	C312.844238,520.417114 293.725769,520.446777 274.629456,519.828552 
	C266.592590,519.568359 258.611938,517.494507 250.611572,516.208984 
	C243.990372,515.145081 237.010406,515.008667 230.848755,512.700867 
	C221.962738,509.372650 213.673065,504.451996 205.129929,500.208771 
	C196.174347,495.760712 191.076187,487.862823 187.406326,479.146759 
	C184.919418,473.240204 183.546585,466.833252 181.990601,460.571808 
	C177.160660,441.135651 176.598373,421.275757 177.136841,401.431488 
	C177.513809,387.538208 178.487198,373.596710 180.307220,359.823822 
	C182.431564,343.747986 187.830994,328.287659 194.668121,313.773560 
	C199.358429,303.816772 207.424484,296.388245 219.375381,292.589172 
	C239.564468,286.171295 259.959656,287.173126 280.457214,287.008118 
	C285.955750,286.963837 291.460693,286.839294 296.952789,287.032990 
	C313.460815,287.615143 329.975098,289.044189 346.465576,288.784882 
	C360.317688,288.567047 373.721130,285.008606 386.870178,280.126099 
	C396.479279,276.558014 403.022217,269.567200 409.609985,262.758850 
	C413.504883,258.733521 415.756836,252.737244 417.651093,247.248856 
	C420.331055,239.484055 422.274963,231.429733 424.019012,223.387573 
	C425.702423,215.624924 426.952362,207.749710 427.993835,199.871216 
	C429.240479,190.440430 430.163910,180.962677 431.013794,171.486130 
	C431.291687,168.387711 432.494080,166.656845 435.629913,167.091049 
	C443.831665,168.226669 452.074066,169.220901 460.176178,170.878082 
	C467.162354,172.306992 474.165710,174.069565 480.830566,176.567474 
	C496.024536,182.261993 508.222198,192.334534 519.023315,204.225571 
	C528.024475,214.134933 534.416809,225.579651 539.065247,238.069107 
	C541.544373,244.730179 544.283142,251.301361 546.536560,258.036285 
	C547.410522,260.648346 547.408081,263.592285 547.566772,266.398529 
	C548.405823,281.235535 550.539001,296.160675 549.637756,310.897064 
	C548.282959,333.046936 542.572937,354.707520 529.355347,372.818817 
	C520.765930,384.588348 510.038269,395.508179 494.160309,398.031525 
	C488.697784,398.899628 483.169861,399.356110 477.671448,399.997528 
	C477.507050,400.016663 477.338440,399.998535 477.171814,400.000214 
	C410.182800,400.667664 343.193939,401.347198 276.204468,401.966125 
	C273.000336,401.995728 270.942230,402.244385 270.876465,406.426208 
	C270.804169,411.026337 273.293182,411.026978 276.561768,411.023987 
	C318.386688,410.985657 360.211609,410.985474 402.036560,411.012543 
	C410.802002,411.018219 409.962402,410.226532 409.986542,419.194824 
	C410.027802,434.524963 410.201141,449.859406 409.896271,465.183624 
	C409.769836,471.538788 409.238342,478.047791 407.665497,484.172089 
	C405.612366,492.166595 398.772400,495.878418 391.645874,498.889709 
	C384.051575,502.098663 376.502167,505.413818 368.527466,508.770813 
M378.977356,445.826996 
	C375.127289,441.154205 371.963531,435.563080 367.252502,432.042328 
	C361.436096,427.695465 354.851929,424.500183 346.527405,427.706024 
	C341.296600,429.720459 328.373962,439.435425 327.067627,445.011902 
	C323.443756,460.481384 327.243469,469.363159 340.792511,478.228088 
	C347.865845,482.856049 354.952911,483.417358 362.567291,479.909424 
	C369.524353,476.704346 374.714417,471.524475 378.000427,464.851807 
	C380.545929,459.682861 382.714874,453.973969 379.092834,448.143372 
	C378.863312,447.773926 379.024261,447.161865 378.977356,445.826996 
z"/>
<path fill="#154F5B" opacity="1.000000" stroke="none" 
	d="
M415.055115,169.095016 
	C414.673645,176.886551 415.114105,184.826721 413.737518,192.438278 
	C410.974670,207.715240 409.585754,223.394302 402.501678,237.644409 
	C399.112732,244.461411 396.934357,252.071991 392.574249,258.151703 
	C389.285828,262.737091 383.736115,266.091583 378.575562,268.830933 
	C373.650146,271.445465 368.008667,272.892609 362.530090,274.231873 
	C357.150269,275.547089 351.590973,276.739807 346.090240,276.836334 
	C328.267395,277.149139 310.430725,277.179565 292.608032,276.850311 
	C276.090302,276.545197 259.521393,274.466644 243.090378,275.339661 
	C227.937759,276.144714 212.367661,278.181519 198.982010,286.412415 
	C188.665009,292.756409 180.178024,301.355591 176.192673,313.214661 
	C173.054077,322.554077 170.794785,332.185272 167.839706,341.591003 
	C164.516586,352.168121 163.376984,363.010681 162.814636,374.006775 
	C162.538834,379.399689 161.773758,384.800903 160.770477,390.111542 
	C160.108856,393.613678 158.545410,396.191284 153.843597,396.104919 
	C133.489395,395.731293 114.716537,390.132294 98.016891,378.712189 
	C85.738174,370.315308 75.850655,359.434021 67.458763,346.906555 
	C60.497063,336.514130 56.919579,325.030823 52.805374,313.570160 
	C46.369476,295.642120 44.438164,277.080750 45.168770,258.264069 
	C45.472446,250.443054 47.933704,242.730316 48.741760,234.899002 
	C50.169048,221.066330 56.213585,208.817886 62.532536,197.007767 
	C67.315796,188.067856 74.656334,180.595078 83.510010,174.700317 
	C90.671455,169.932236 98.019356,166.163330 106.319695,164.145111 
	C107.900688,163.760681 109.472298,163.259171 111.078285,163.077881 
	C112.723785,162.892136 114.406197,163.038940 116.072403,163.030319 
	C182.350143,162.686981 248.627945,162.354401 314.905334,161.952026 
	C317.397278,161.936890 320.737335,163.279129 321.073273,158.467438 
	C321.395172,153.856949 319.541443,152.908905 315.328552,152.921539 
	C273.339447,153.047546 231.349777,152.998718 189.360260,152.994263 
	C182.026688,152.993484 182.018097,152.982727 182.017380,145.665039 
	C182.015854,130.168945 181.817749,114.668701 182.129959,99.178818 
	C182.255112,92.969139 183.269028,86.741020 184.313995,80.595360 
	C185.653961,72.714821 192.461090,69.228981 198.453232,66.432121 
	C209.735367,61.166122 221.594559,57.077106 233.369598,52.942371 
	C246.242233,48.422218 259.601105,46.346943 273.265869,45.920300 
	C286.522369,45.506401 299.773254,44.024551 313.011841,44.190292 
	C325.063568,44.341175 337.350708,44.904015 349.060699,47.456703 
	C359.673401,49.770210 369.657654,54.987164 379.900177,58.972317 
	C389.075562,62.542286 396.569946,68.474297 401.155121,77.080849 
	C405.311157,84.881889 408.325348,93.165565 410.410217,102.007065 
	C413.304565,114.281181 413.909027,126.636353 415.026703,139.936844 
	C415.040863,150.267456 415.047974,159.681229 415.055115,169.095016 
M229.096817,77.642899 
	C220.813507,78.985641 215.468384,84.663155 211.147583,91.000252 
	C208.811966,94.425774 207.539062,99.040123 207.164536,103.240990 
	C206.407394,111.733444 210.012131,118.899277 216.511230,124.274223 
	C221.118393,128.084503 226.084106,131.783905 232.442642,131.953400 
	C244.890640,132.285233 253.628998,126.130196 258.846558,115.265091 
	C261.009796,110.760307 263.028564,106.383392 261.488129,100.263870 
	C258.795715,89.567894 253.034149,82.433891 243.255539,78.520653 
	C239.120544,76.865898 234.622284,73.822380 229.096817,77.642899 
z"/>
<path fill="#329898" opacity="1.000000" stroke="none" 
	d="
M217.024231,588.942261 
	C213.998413,584.213745 211.339340,579.628906 208.029877,573.922668 
	C208.029877,590.204346 208.029877,605.231995 208.029877,620.626587 
	C204.920685,620.626587 202.223770,620.626587 199.257248,620.626587 
	C199.257248,599.580933 199.257248,578.670654 199.257248,557.016357 
	C202.351517,557.016357 205.451248,556.851868 208.513977,557.116211 
	C209.437576,557.195923 210.525513,558.303101 211.084534,559.217102 
	C216.159988,567.515320 221.014465,575.950623 226.179947,584.191345 
	C229.858780,590.060303 233.916580,595.691711 237.924484,601.604980 
	C237.924484,587.011963 237.924484,572.348999 237.924484,557.345886 
	C241.087769,557.345886 243.788162,557.345886 246.749207,557.345886 
	C246.749207,578.430908 246.749207,599.340759 246.749207,620.238098 
	C238.595947,622.284607 235.850525,620.624939 231.016113,611.932495 
	C226.708237,604.186890 221.950302,596.691650 217.024231,588.942261 
z"/>
<path fill="#329898" opacity="1.000000" stroke="none" 
	d="
M384.702454,621.000610 
	C381.430786,621.000977 378.610596,621.000977 376.575531,621.000977 
	C369.904510,611.203125 363.598938,601.942017 357.046448,592.318237 
	C348.035309,600.794556 354.053345,611.238403 351.373779,620.580688 
	C348.417297,620.580688 345.046112,620.580688 341.332489,620.580688 
	C341.332489,599.599426 341.332489,578.569458 341.332489,557.268188 
	C344.754883,557.268188 348.012543,557.268188 351.721008,557.268188 
	C351.721008,566.034058 351.721008,574.784485 351.721008,583.968689 
	C353.052551,583.385742 354.140991,583.256287 354.613708,582.648193 
	C358.928009,577.097656 363.172607,571.491455 367.348145,565.835632 
	C368.440552,564.355896 368.983856,562.427917 370.206085,561.098022 
	C371.661926,559.513977 373.435211,557.505188 375.324036,557.188049 
	C378.995148,556.571777 382.842834,557.007690 387.906525,557.007690 
	C383.332611,562.452576 379.492249,566.969543 375.714569,571.538391 
	C372.624298,575.275879 369.423798,578.948486 366.692657,582.937683 
	C366.026794,583.910278 366.518738,586.339050 367.317535,587.540344 
	C371.688568,594.113892 376.406708,600.455627 380.832764,606.993958 
	C383.637695,611.137451 386.141571,615.484741 389.305603,620.587524 
	C387.722992,620.744873 386.438477,620.872559 384.702454,621.000610 
z"/>
<path fill="#329999" opacity="1.000000" stroke="none" 
	d="
M307.999329,590.000000 
	C307.999329,581.536926 307.999329,573.573853 307.999329,565.150269 
	C300.987244,565.150269 294.395050,565.150269 287.412720,565.150269 
	C287.412720,562.328491 287.412720,559.959290 287.412720,557.289001 
	C303.712280,557.289001 319.972656,557.289001 336.614990,557.289001 
	C336.614990,559.655945 336.614990,562.025330 336.614990,564.843872 
	C330.642609,564.843872 324.706177,564.843872 318.163147,564.843872 
	C318.163147,583.642029 318.163147,602.025269 318.163147,620.699280 
	C314.636475,620.699280 311.708191,620.699280 307.999329,620.699280 
	C307.999329,610.682800 307.999329,600.591431 307.999329,590.000000 
z"/>
<path fill="#329999" opacity="1.000000" stroke="none" 
	d="
M296.442902,613.477539 
	C296.793060,615.933533 296.793060,618.084656 296.793060,620.617920 
	C284.418121,620.617920 272.048889,620.617920 259.341705,620.617920 
	C259.341705,599.604370 259.341705,578.592712 259.341705,557.289429 
	C262.391083,557.289429 265.316315,557.289429 268.809357,557.289429 
	C268.809357,575.604858 268.809357,593.965942 268.809357,613.172668 
	C278.271027,613.172668 287.181885,613.172668 296.442902,613.477539 
z"/>
<path fill="#005555" opacity="1.000000" stroke="none" 
	d="
M415.332703,168.772308 
	C415.047974,159.681229 415.040863,150.267456 415.044861,140.379013 
	C415.370667,144.959045 415.843048,150.010330 415.952637,155.069458 
	C416.049164,159.524948 415.740173,163.989212 415.332703,168.772308 
z"/>
</svg>